<svg xmlns="http://www.w3.org/2000/svg" xmlns:xlink="http://www.w3.org/1999/xlink" width="50" zoomAndPan="magnify" viewBox="0 0 37.5 37.499999" height="50" preserveAspectRatio="xMidYMid meet" version="1.0"><defs><g/><clipPath id="735a413a85"><path d="M 0 0 L 37.007812 0 L 37.007812 37.007812 L 0 37.007812 Z M 0 0 " clip-rule="nonzero"/></clipPath><clipPath id="433fbeac33"><path d="M 1.207031 16.433594 L 5.644531 16.433594 L 5.644531 21.609375 L 1.207031 21.609375 Z M 1.207031 16.433594 " clip-rule="nonzero"/></clipPath><clipPath id="a06d364390"><path d="M 1.207031 17.011719 L 5.644531 17.011719 L 5.644531 21.15625 L 1.207031 21.15625 Z M 1.207031 17.011719 " clip-rule="nonzero"/></clipPath><clipPath id="53f71db474"><path d="M 1.207031 16.433594 L 5.644531 16.433594 L 5.644531 21.609375 L 1.207031 21.609375 Z M 1.207031 16.433594 " clip-rule="nonzero"/></clipPath></defs><g clip-path="url(#735a413a85)"><path fill="#ffffff" d="M 0 0 L 37.007812 0 L 37.007812 37.007812 L 0 37.007812 Z M 0 0 " fill-opacity="1" fill-rule="nonzero"/><path fill="#ffffff" d="M 0 0 L 37.007812 0 L 37.007812 37.007812 L 0 37.007812 Z M 0 0 " fill-opacity="1" fill-rule="nonzero"/></g><g fill="#022d66" fill-opacity="1"><g transform="translate(6.439792, 19.413868)"><g><path d="M 0.546875 -0.015625 C 0.597656 -0.0859375 0.625 -0.1875 0.625 -0.3125 L 0.625 -1.625 L 0.546875 -1.625 C 0.421875 -1.625 0.316406 -1.585938 0.234375 -1.515625 C 0.148438 -1.441406 0.078125 -1.335938 0.015625 -1.203125 L 0 -1.203125 L 0.046875 -1.6875 L 1.5625 -1.6875 L 1.609375 -1.203125 L 1.59375 -1.203125 C 1.53125 -1.335938 1.457031 -1.441406 1.375 -1.515625 C 1.289062 -1.585938 1.1875 -1.625 1.0625 -1.625 L 0.984375 -1.625 L 0.984375 -0.3125 C 0.984375 -0.1875 1.007812 -0.0859375 1.0625 -0.015625 L 1.0625 0 L 0.546875 0 Z M 0.546875 -0.015625 "/></g></g></g><g fill="#022d66" fill-opacity="1"><g transform="translate(8.357383, 19.413868)"><g><path d="M 0.15625 -0.015625 C 0.175781 -0.046875 0.191406 -0.0820312 0.203125 -0.125 C 0.210938 -0.175781 0.21875 -0.226562 0.21875 -0.28125 L 0.21875 -0.828125 C 0.21875 -0.890625 0.207031 -0.941406 0.1875 -0.984375 C 0.175781 -1.023438 0.15625 -1.0625 0.125 -1.09375 L 0.53125 -1.234375 L 0.546875 -1.234375 L 0.546875 -0.90625 L 0.5625 -0.90625 C 0.582031 -1.007812 0.625 -1.085938 0.6875 -1.140625 C 0.757812 -1.203125 0.859375 -1.234375 0.984375 -1.234375 L 0.984375 -0.9375 L 0.84375 -0.9375 C 0.738281 -0.9375 0.660156 -0.914062 0.609375 -0.875 C 0.566406 -0.832031 0.546875 -0.757812 0.546875 -0.65625 L 0.546875 -0.28125 C 0.546875 -0.226562 0.550781 -0.175781 0.5625 -0.125 C 0.570312 -0.0820312 0.585938 -0.046875 0.609375 -0.015625 L 0.609375 0 L 0.15625 0 Z M 0.15625 -0.015625 "/></g></g></g><g fill="#022d66" fill-opacity="1"><g transform="translate(9.664613, 19.413868)"><g><path d="M 0.578125 0.03125 C 0.460938 0.03125 0.367188 -0.00390625 0.296875 -0.078125 C 0.222656 -0.148438 0.1875 -0.25 0.1875 -0.375 L 0.1875 -0.828125 C 0.1875 -0.890625 0.179688 -0.941406 0.171875 -0.984375 C 0.160156 -1.023438 0.140625 -1.0625 0.109375 -1.09375 L 0.5 -1.234375 L 0.515625 -1.234375 L 0.515625 -0.375 C 0.515625 -0.3125 0.535156 -0.257812 0.578125 -0.21875 C 0.617188 -0.175781 0.671875 -0.15625 0.734375 -0.15625 C 0.796875 -0.15625 0.847656 -0.175781 0.890625 -0.21875 C 0.941406 -0.257812 0.96875 -0.3125 0.96875 -0.375 L 0.96875 -0.828125 C 0.96875 -0.890625 0.957031 -0.941406 0.9375 -0.984375 C 0.925781 -1.023438 0.90625 -1.0625 0.875 -1.09375 L 1.28125 -1.234375 L 1.28125 -0.328125 C 1.28125 -0.253906 1.285156 -0.195312 1.296875 -0.15625 C 1.316406 -0.125 1.34375 -0.09375 1.375 -0.0625 L 1.375 -0.046875 L 0.96875 0.03125 L 0.96875 -0.203125 L 0.953125 -0.203125 C 0.921875 -0.128906 0.867188 -0.0703125 0.796875 -0.03125 C 0.734375 0.0078125 0.660156 0.03125 0.578125 0.03125 Z M 0.578125 0.03125 "/></g></g></g><g fill="#022d66" fill-opacity="1"><g transform="translate(11.462054, 19.413868)"><g><path d="M 0.5625 0.03125 C 0.394531 0.03125 0.253906 0 0.140625 -0.0625 L 0.140625 -0.421875 L 0.15625 -0.421875 C 0.1875 -0.335938 0.222656 -0.265625 0.265625 -0.203125 C 0.316406 -0.148438 0.367188 -0.109375 0.421875 -0.078125 C 0.484375 -0.046875 0.539062 -0.03125 0.59375 -0.03125 C 0.664062 -0.03125 0.71875 -0.046875 0.75 -0.078125 C 0.789062 -0.117188 0.8125 -0.171875 0.8125 -0.234375 C 0.8125 -0.285156 0.789062 -0.328125 0.75 -0.359375 C 0.707031 -0.398438 0.640625 -0.429688 0.546875 -0.453125 C 0.410156 -0.484375 0.304688 -0.53125 0.234375 -0.59375 C 0.160156 -0.65625 0.125 -0.742188 0.125 -0.859375 C 0.125 -0.972656 0.164062 -1.0625 0.25 -1.125 C 0.34375 -1.195312 0.457031 -1.234375 0.59375 -1.234375 C 0.707031 -1.234375 0.832031 -1.203125 0.96875 -1.140625 L 0.96875 -0.8125 L 0.953125 -0.8125 C 0.910156 -0.914062 0.847656 -1 0.765625 -1.0625 C 0.691406 -1.132812 0.617188 -1.171875 0.546875 -1.171875 C 0.484375 -1.171875 0.429688 -1.15625 0.390625 -1.125 C 0.359375 -1.09375 0.34375 -1.050781 0.34375 -1 C 0.34375 -0.9375 0.363281 -0.890625 0.40625 -0.859375 C 0.445312 -0.828125 0.519531 -0.800781 0.625 -0.78125 C 0.757812 -0.738281 0.863281 -0.6875 0.9375 -0.625 C 1.007812 -0.5625 1.046875 -0.472656 1.046875 -0.359375 C 1.046875 -0.222656 1 -0.125 0.90625 -0.0625 C 0.8125 0 0.695312 0.03125 0.5625 0.03125 Z M 0.5625 0.03125 "/></g></g></g><g fill="#022d66" fill-opacity="1"><g transform="translate(12.923076, 19.413868)"><g><path d="M 0.5625 0.03125 C 0.457031 0.03125 0.367188 0 0.296875 -0.0625 C 0.222656 -0.132812 0.1875 -0.226562 0.1875 -0.34375 L 0.1875 -0.96875 C 0.1875 -1.007812 0.175781 -1.046875 0.15625 -1.078125 C 0.132812 -1.109375 0.109375 -1.128906 0.078125 -1.140625 L 0.078125 -1.15625 C 0.160156 -1.1875 0.238281 -1.226562 0.3125 -1.28125 C 0.382812 -1.332031 0.445312 -1.390625 0.5 -1.453125 L 0.515625 -1.453125 L 0.515625 -1.203125 L 0.859375 -1.203125 L 0.84375 -1.109375 L 0.515625 -1.109375 L 0.515625 -0.34375 C 0.515625 -0.269531 0.535156 -0.210938 0.578125 -0.171875 C 0.617188 -0.128906 0.664062 -0.109375 0.71875 -0.109375 C 0.75 -0.109375 0.773438 -0.113281 0.796875 -0.125 C 0.828125 -0.144531 0.847656 -0.160156 0.859375 -0.171875 L 0.890625 -0.15625 C 0.867188 -0.101562 0.828125 -0.0546875 0.765625 -0.015625 C 0.703125 0.015625 0.632812 0.03125 0.5625 0.03125 Z M 0.5625 0.03125 "/></g></g></g><g fill="#022d66" fill-opacity="1"><g transform="translate(14.119766, 19.413868)"><g><path d="M 0.140625 0.46875 C 0.160156 0.4375 0.175781 0.394531 0.1875 0.34375 C 0.195312 0.300781 0.203125 0.253906 0.203125 0.203125 L 0.203125 -0.828125 C 0.203125 -0.890625 0.191406 -0.941406 0.171875 -0.984375 C 0.160156 -1.023438 0.144531 -1.0625 0.125 -1.09375 L 0.515625 -1.234375 L 0.53125 -1.234375 L 0.53125 -1.015625 L 0.546875 -1.015625 C 0.585938 -1.085938 0.632812 -1.140625 0.6875 -1.171875 C 0.75 -1.210938 0.820312 -1.234375 0.90625 -1.234375 C 1 -1.234375 1.082031 -1.207031 1.15625 -1.15625 C 1.226562 -1.113281 1.285156 -1.046875 1.328125 -0.953125 C 1.367188 -0.867188 1.390625 -0.765625 1.390625 -0.640625 C 1.390625 -0.515625 1.363281 -0.398438 1.3125 -0.296875 C 1.257812 -0.191406 1.1875 -0.109375 1.09375 -0.046875 C 1.007812 0.00390625 0.921875 0.03125 0.828125 0.03125 C 0.703125 0.03125 0.601562 0 0.53125 -0.0625 L 0.53125 0.203125 C 0.53125 0.253906 0.535156 0.300781 0.546875 0.34375 C 0.554688 0.394531 0.570312 0.4375 0.59375 0.46875 L 0.59375 0.484375 L 0.140625 0.484375 Z M 0.765625 -0.03125 C 0.859375 -0.03125 0.925781 -0.078125 0.96875 -0.171875 C 1.019531 -0.273438 1.046875 -0.410156 1.046875 -0.578125 C 1.046875 -0.734375 1.019531 -0.851562 0.96875 -0.9375 C 0.914062 -1.019531 0.847656 -1.0625 0.765625 -1.0625 C 0.703125 -1.0625 0.648438 -1.039062 0.609375 -1 C 0.566406 -0.96875 0.539062 -0.921875 0.53125 -0.859375 L 0.53125 -0.28125 C 0.539062 -0.21875 0.566406 -0.160156 0.609375 -0.109375 C 0.648438 -0.0546875 0.703125 -0.03125 0.765625 -0.03125 Z M 0.765625 -0.03125 "/></g></g></g><g fill="#022d66" fill-opacity="1"><g transform="translate(15.914802, 19.413868)"><g><path d="M 0.703125 0.03125 C 0.578125 0.03125 0.46875 0.00390625 0.375 -0.046875 C 0.289062 -0.0976562 0.222656 -0.171875 0.171875 -0.265625 C 0.117188 -0.367188 0.09375 -0.484375 0.09375 -0.609375 C 0.09375 -0.722656 0.117188 -0.828125 0.171875 -0.921875 C 0.222656 -1.023438 0.289062 -1.101562 0.375 -1.15625 C 0.46875 -1.207031 0.578125 -1.234375 0.703125 -1.234375 C 0.816406 -1.234375 0.921875 -1.207031 1.015625 -1.15625 C 1.109375 -1.101562 1.179688 -1.023438 1.234375 -0.921875 C 1.285156 -0.828125 1.3125 -0.722656 1.3125 -0.609375 C 1.3125 -0.484375 1.285156 -0.367188 1.234375 -0.265625 C 1.179688 -0.171875 1.109375 -0.0976562 1.015625 -0.046875 C 0.921875 0.00390625 0.816406 0.03125 0.703125 0.03125 Z M 0.703125 -0.03125 C 0.785156 -0.03125 0.847656 -0.0820312 0.890625 -0.1875 C 0.941406 -0.289062 0.96875 -0.429688 0.96875 -0.609375 C 0.96875 -0.773438 0.941406 -0.910156 0.890625 -1.015625 C 0.847656 -1.117188 0.785156 -1.171875 0.703125 -1.171875 C 0.609375 -1.171875 0.539062 -1.117188 0.5 -1.015625 C 0.457031 -0.910156 0.4375 -0.773438 0.4375 -0.609375 C 0.4375 -0.429688 0.457031 -0.289062 0.5 -0.1875 C 0.539062 -0.0820312 0.609375 -0.03125 0.703125 -0.03125 Z M 0.703125 -0.03125 "/></g></g></g><g fill="#022d66" fill-opacity="1"><g transform="translate(17.620928, 19.413868)"><g><path d="M 0.15625 -0.015625 C 0.175781 -0.046875 0.191406 -0.0820312 0.203125 -0.125 C 0.210938 -0.175781 0.21875 -0.226562 0.21875 -0.28125 L 0.21875 -0.828125 C 0.21875 -0.890625 0.207031 -0.941406 0.1875 -0.984375 C 0.175781 -1.023438 0.15625 -1.0625 0.125 -1.09375 L 0.53125 -1.234375 L 0.546875 -1.234375 L 0.546875 -0.28125 C 0.546875 -0.226562 0.550781 -0.175781 0.5625 -0.125 C 0.570312 -0.0820312 0.585938 -0.046875 0.609375 -0.015625 L 0.609375 0 L 0.15625 0 Z M 0.375 -1.375 C 0.320312 -1.375 0.273438 -1.390625 0.234375 -1.421875 C 0.203125 -1.460938 0.1875 -1.507812 0.1875 -1.5625 C 0.1875 -1.613281 0.203125 -1.65625 0.234375 -1.6875 C 0.273438 -1.726562 0.320312 -1.75 0.375 -1.75 C 0.425781 -1.75 0.46875 -1.726562 0.5 -1.6875 C 0.539062 -1.65625 0.5625 -1.613281 0.5625 -1.5625 C 0.5625 -1.507812 0.539062 -1.460938 0.5 -1.421875 C 0.46875 -1.390625 0.425781 -1.375 0.375 -1.375 Z M 0.375 -1.375 "/></g></g></g><g fill="#022d66" fill-opacity="1"><g transform="translate(18.675844, 19.413868)"><g><path d="M 0.15625 -0.015625 C 0.175781 -0.046875 0.191406 -0.0820312 0.203125 -0.125 C 0.210938 -0.175781 0.21875 -0.226562 0.21875 -0.28125 L 0.21875 -0.828125 C 0.21875 -0.890625 0.207031 -0.941406 0.1875 -0.984375 C 0.175781 -1.023438 0.15625 -1.0625 0.125 -1.09375 L 0.53125 -1.234375 L 0.546875 -1.234375 L 0.546875 -1 L 0.5625 -1 C 0.59375 -1.070312 0.640625 -1.128906 0.703125 -1.171875 C 0.765625 -1.210938 0.84375 -1.234375 0.9375 -1.234375 C 1.050781 -1.234375 1.144531 -1.195312 1.21875 -1.125 C 1.289062 -1.050781 1.328125 -0.953125 1.328125 -0.828125 L 1.328125 -0.28125 C 1.328125 -0.226562 1.332031 -0.175781 1.34375 -0.125 C 1.351562 -0.0820312 1.367188 -0.046875 1.390625 -0.015625 L 1.390625 0 L 0.921875 0 L 0.921875 -0.015625 C 0.941406 -0.046875 0.957031 -0.0820312 0.96875 -0.125 C 0.988281 -0.175781 1 -0.226562 1 -0.28125 L 1 -0.828125 C 1 -0.890625 0.976562 -0.941406 0.9375 -0.984375 C 0.894531 -1.023438 0.84375 -1.046875 0.78125 -1.046875 C 0.71875 -1.046875 0.660156 -1.023438 0.609375 -0.984375 C 0.566406 -0.941406 0.546875 -0.890625 0.546875 -0.828125 L 0.546875 -0.28125 C 0.546875 -0.226562 0.550781 -0.175781 0.5625 -0.125 C 0.570312 -0.0820312 0.585938 -0.046875 0.609375 -0.015625 L 0.609375 0 L 0.15625 0 Z M 0.15625 -0.015625 "/></g></g></g><g fill="#022d66" fill-opacity="1"><g transform="translate(20.494913, 19.413868)"><g><path d="M 0.5625 0.03125 C 0.457031 0.03125 0.367188 0 0.296875 -0.0625 C 0.222656 -0.132812 0.1875 -0.226562 0.1875 -0.34375 L 0.1875 -0.96875 C 0.1875 -1.007812 0.175781 -1.046875 0.15625 -1.078125 C 0.132812 -1.109375 0.109375 -1.128906 0.078125 -1.140625 L 0.078125 -1.15625 C 0.160156 -1.1875 0.238281 -1.226562 0.3125 -1.28125 C 0.382812 -1.332031 0.445312 -1.390625 0.5 -1.453125 L 0.515625 -1.453125 L 0.515625 -1.203125 L 0.859375 -1.203125 L 0.84375 -1.109375 L 0.515625 -1.109375 L 0.515625 -0.34375 C 0.515625 -0.269531 0.535156 -0.210938 0.578125 -0.171875 C 0.617188 -0.128906 0.664062 -0.109375 0.71875 -0.109375 C 0.75 -0.109375 0.773438 -0.113281 0.796875 -0.125 C 0.828125 -0.144531 0.847656 -0.160156 0.859375 -0.171875 L 0.890625 -0.15625 C 0.867188 -0.101562 0.828125 -0.0546875 0.765625 -0.015625 C 0.703125 0.015625 0.632812 0.03125 0.5625 0.03125 Z M 0.5625 0.03125 "/></g></g></g><g clip-path="url(#433fbeac33)"><path fill="#048446" d="M 3.511719 21.746094 L 3.511719 21.449219 L 1.207031 19.980469 L 1.207031 20.277344 Z M 3.511719 19.671875 L 3.511719 19.96875 L 4.421875 19.386719 L 4.191406 19.242188 Z M 3.515625 16.433594 L 3.515625 16.726562 L 5.820312 18.195312 L 5.820312 17.902344 Z M 3.515625 18.503906 L 3.515625 18.207031 L 2.601562 18.789062 L 2.832031 18.9375 L 3.515625 18.503906 " fill-opacity="1" fill-rule="nonzero"/></g><g clip-path="url(#a06d364390)"><path fill="#048446" d="M 3.511719 21.152344 L 3.511719 20.855469 L 1.207031 19.386719 L 1.207031 19.683594 Z M 3.511719 20.5625 L 4.886719 19.683594 L 4.65625 19.535156 L 3.511719 20.265625 Z M 3.515625 17.023438 L 3.515625 17.320312 L 5.820312 18.789062 L 5.820312 18.492188 Z M 3.515625 17.617188 L 2.136719 18.496094 L 2.367188 18.644531 L 3.515625 17.910156 L 3.515625 17.617188 " fill-opacity="1" fill-rule="nonzero"/><path fill="#048446" d="M 3.511719 20.5625 L 3.511719 20.265625 L 1.207031 18.796875 L 1.207031 19.09375 Z M 3.511719 21.152344 L 5.355469 19.980469 L 5.121094 19.832031 L 3.511719 20.859375 Z M 3.515625 17.617188 L 3.515625 17.914062 L 5.820312 19.382812 L 5.820312 19.085938 Z M 3.515625 17.023438 L 1.671875 18.199219 L 1.902344 18.347656 L 3.515625 17.320312 L 3.515625 17.023438 " fill-opacity="1" fill-rule="nonzero"/></g><g clip-path="url(#53f71db474)"><path fill="#048446" d="M 3.511719 19.96875 L 3.511719 19.671875 L 1.207031 18.203125 L 1.207031 18.5 Z M 3.511719 21.746094 L 5.820312 20.273438 L 5.585938 20.128906 L 3.511719 21.449219 Z M 3.515625 18.207031 L 3.515625 18.503906 L 5.820312 19.972656 L 5.820312 19.675781 Z M 3.515625 16.433594 L 1.207031 17.902344 L 1.4375 18.050781 L 3.515625 16.726562 L 3.515625 16.433594 " fill-opacity="1" fill-rule="nonzero"/></g></svg>