<svg xmlns="http://www.w3.org/2000/svg" xmlns:xlink="http://www.w3.org/1999/xlink" width="378" zoomAndPan="magnify" viewBox="0 0 283.5 283.500005" height="378" preserveAspectRatio="xMidYMid meet" version="1.0"><defs><filter x="0%" y="0%" width="100%" height="100%" id="ee7415514d"><feColorMatrix values="0 0 0 0 1 0 0 0 0 1 0 0 0 0 1 0 0 0 1 0" color-interpolation-filters="sRGB"/></filter><mask id="e0767af92b"><g filter="url(#ee7415514d)"><rect x="-28.35" width="340.2" fill="#000000" y="-28.350001" height="340.200006" fill-opacity="0.28"/></g></mask><clipPath id="7581ad79f6"><path d="M 0.933594 0.496094 L 191.847656 0.496094 L 191.847656 220.441406 L 0.933594 220.441406 Z M 0.933594 0.496094 " clip-rule="nonzero"/></clipPath><clipPath id="239c4ada4d"><path d="M 0.933594 25 L 191.847656 25 L 191.847656 196 L 0.933594 196 Z M 0.933594 25 " clip-rule="nonzero"/></clipPath><clipPath id="a58d495e25"><path d="M 0.933594 0.496094 L 191.847656 0.496094 L 191.847656 220.441406 L 0.933594 220.441406 Z M 0.933594 0.496094 " clip-rule="nonzero"/></clipPath><clipPath id="431e45990d"><rect x="0" width="193" y="0" height="221"/></clipPath></defs><path fill="#ffffff" d="M 0 0 L 283 0 L 283 283 L 0 283 Z M 0 0 " fill-opacity="1" fill-rule="nonzero"/><path fill="#ffffff" d="M 0 0 L 283 0 L 283 283 L 0 283 Z M 0 0 " fill-opacity="1" fill-rule="nonzero"/><g mask="url(#e0767af92b)"><g transform="matrix(1, 0, 0, 1, 45, 34)"><g clip-path="url(#431e45990d)"><g clip-path="url(#7581ad79f6)"><path fill="#01572d" d="M 96.402344 220.496094 L 96.402344 208.28125 L 0.933594 147.445312 L 0.933594 159.65625 Z M 96.402344 134.691406 L 96.402344 146.980469 L 134.199219 122.863281 L 124.617188 116.753906 Z M 96.554688 0.496094 L 96.554688 12.710938 L 192.023438 73.542969 L 192.023438 61.332031 Z M 96.554688 86.300781 L 96.554688 74.011719 L 58.679688 98.128906 L 68.339844 104.234375 L 96.554688 86.300781 " fill-opacity="1" fill-rule="nonzero"/></g><g clip-path="url(#239c4ada4d)"><path fill="#01572d" d="M 96.402344 195.988281 L 96.402344 183.699219 L 0.933594 122.863281 L 0.933594 135.152344 Z M 96.402344 171.484375 L 153.449219 135.078125 L 143.863281 128.96875 L 96.402344 159.269531 Z M 96.554688 25 L 96.554688 37.292969 L 192.023438 98.128906 L 192.023438 85.835938 Z M 96.554688 49.503906 L 39.429688 85.914062 L 49.09375 92.019531 L 96.554688 61.71875 L 96.554688 49.503906 " fill-opacity="1" fill-rule="nonzero"/><path fill="#01572d" d="M 96.402344 171.484375 L 96.402344 159.195312 L 0.933594 98.359375 L 0.933594 110.648438 Z M 96.402344 195.988281 L 172.777344 147.367188 L 163.113281 141.183594 L 96.402344 183.777344 Z M 96.554688 49.503906 L 96.554688 61.796875 L 192.023438 122.632812 L 192.023438 110.339844 Z M 96.554688 25 L 20.179688 73.625 L 29.769531 79.808594 L 96.554688 37.214844 L 96.554688 25 " fill-opacity="1" fill-rule="nonzero"/></g><g clip-path="url(#a58d495e25)"><path fill="#01572d" d="M 96.402344 146.980469 L 96.402344 134.691406 L 0.933594 73.851562 L 0.933594 86.144531 Z M 96.402344 220.496094 L 192.023438 159.582031 L 182.359375 153.472656 L 96.402344 208.28125 Z M 96.554688 74.011719 L 96.554688 86.300781 L 192.023438 147.136719 L 192.023438 134.84375 Z M 96.554688 0.496094 L 0.933594 61.410156 L 10.519531 67.515625 L 96.554688 12.710938 L 96.554688 0.496094 " fill-opacity="1" fill-rule="nonzero"/></g></g></g></g></svg>