<svg xmlns="http://www.w3.org/2000/svg" xmlns:xlink="http://www.w3.org/1999/xlink" width="100" zoomAndPan="magnify" viewBox="0 0 75 74.999997" height="100" preserveAspectRatio="xMidYMid meet" version="1.0"><defs><clipPath id="13e41be350"><path d="M 5.734375 1.949219 L 67.234375 1.949219 L 67.234375 73.050781 L 5.734375 73.050781 Z M 5.734375 1.949219 " clip-rule="nonzero"/></clipPath><clipPath id="43d4e68028"><path d="M 5.734375 9.691406 L 67.234375 9.691406 L 67.234375 65.15625 L 5.734375 65.15625 Z M 5.734375 9.691406 " clip-rule="nonzero"/></clipPath><clipPath id="49f8b936c5"><path d="M 5.734375 1.949219 L 67.234375 1.949219 L 67.234375 73.050781 L 5.734375 73.050781 Z M 5.734375 1.949219 " clip-rule="nonzero"/></clipPath></defs><g clip-path="url(#13e41be350)"><path fill="#c1ff72" d="M 36.589844 73.050781 L 36.589844 69.101562 L 5.734375 49.441406 L 5.734375 53.386719 Z M 36.589844 45.320312 L 36.589844 49.292969 L 48.804688 41.496094 L 45.707031 39.523438 Z M 36.640625 1.949219 L 36.640625 5.894531 L 67.492188 25.558594 L 67.492188 21.609375 Z M 36.640625 29.679688 L 36.640625 25.707031 L 24.398438 33.503906 L 27.519531 35.476562 L 36.640625 29.679688 " fill-opacity="1" fill-rule="nonzero"/></g><g clip-path="url(#43d4e68028)"><path fill="#c1ff72" d="M 36.589844 65.128906 L 36.589844 61.15625 L 5.734375 41.496094 L 5.734375 45.46875 Z M 36.589844 57.210938 L 55.027344 45.445312 L 51.929688 43.46875 L 36.589844 53.261719 Z M 36.640625 9.867188 L 36.640625 13.839844 L 67.492188 33.503906 L 67.492188 29.527344 Z M 36.640625 17.789062 L 18.175781 29.554688 L 21.300781 31.527344 L 36.640625 21.734375 L 36.640625 17.789062 " fill-opacity="1" fill-rule="nonzero"/><path fill="#c1ff72" d="M 36.589844 57.210938 L 36.589844 53.238281 L 5.734375 33.578125 L 5.734375 37.550781 Z M 36.589844 65.128906 L 61.273438 49.417969 L 58.148438 47.417969 L 36.589844 61.183594 Z M 36.640625 17.789062 L 36.640625 21.761719 L 67.492188 41.421875 L 67.492188 37.449219 Z M 36.640625 9.867188 L 11.957031 25.582031 L 15.054688 27.582031 L 36.640625 13.816406 L 36.640625 9.867188 " fill-opacity="1" fill-rule="nonzero"/></g><g clip-path="url(#49f8b936c5)"><path fill="#c1ff72" d="M 36.589844 49.292969 L 36.589844 45.320312 L 5.734375 25.65625 L 5.734375 29.628906 Z M 36.589844 73.050781 L 67.492188 53.363281 L 64.371094 51.390625 L 36.589844 69.101562 Z M 36.640625 25.707031 L 36.640625 29.679688 L 67.492188 49.339844 L 67.492188 45.367188 Z M 36.640625 1.949219 L 5.734375 21.636719 L 8.832031 23.609375 L 36.640625 5.894531 L 36.640625 1.949219 " fill-opacity="1" fill-rule="nonzero"/></g></svg>